<svg width="40" height="42" viewBox="0 0 40 42" fill="none" xmlns="http://www.w3.org/2000/svg">
<path d="M18.3333 8.82609H23.3333V9.69565C23.3333 11.0794 22.8065 12.4065 21.8689 13.3849C20.9312 14.3634 19.6594 14.913 18.3333 14.913H11.6667H20.4167C21.1902 14.913 21.9321 15.2337 22.4791 15.8045C23.026 16.3752 23.3333 17.1493 23.3333 17.9565C23.3333 18.7637 23.026 19.5378 22.4791 20.1086C21.9321 20.6793 21.1902 21 20.4167 21H16.6667H18.75C19.133 21 19.5123 21.0787 19.8662 21.2317C20.22 21.3846 20.5416 21.6088 20.8124 21.8914C21.0832 22.174 21.2981 22.5095 21.4446 22.8788C21.5912 23.248 21.6667 23.6438 21.6667 24.0435C21.6667 24.4432 21.5912 24.8389 21.4446 25.2082C21.2981 25.5774 21.0832 25.9129 20.8124 26.1955C20.5416 26.4782 20.22 26.7023 19.8662 26.8553C19.5123 27.0082 19.133 27.087 18.75 27.087H16.6667H17.0833C17.8569 27.087 18.5987 27.4076 19.1457 27.9784C19.6927 28.5491 20 29.3233 20 30.1304C20 30.9376 19.6927 31.7117 19.1457 32.2825C18.5987 32.8533 17.8569 33.1739 17.0833 33.1739H0M13.3333 8.82609H5.83333C5.83333 10.4404 5.21875 11.9887 4.12479 13.1302C3.03083 14.2717 1.5471 14.913 0 14.913M15.8333 14.913V1H24.1667M15.8333 33.1739V41H24.1667M26.6667 21H40M34.285 14.0435C34.285 14.7791 33.5867 15.88 32.8817 16.8035C31.9789 18.0006 30.8824 19.0235 29.6417 19.8261C28.7083 20.4209 27.5767 20.9913 26.6667 20.9913M34.2867 27.9565C34.2867 27.2209 33.5867 26.12 32.8817 25.1965C31.9789 23.9995 30.8823 22.9766 29.6417 22.1739C28.7083 21.5791 27.5767 21.0087 26.6667 21.0087" stroke="#192655" stroke-width="2"/>
</svg>
